<?xml version="1.0" encoding="UTF-8"?>
<svg width="640" height="240" viewBox="0 0 640 240" fill="none" xmlns="http://www.w3.org/2000/svg">
  <rect width="640" height="240" rx="24" fill="#0f1115"/>
  <g transform="translate(40,24)">
    <polyline points="0,140 80,80 120,110 200,40 300,150 360,120 440,160" stroke="#eaeaea" stroke-width="6" fill="none" stroke-linecap="round" stroke-linejoin="round"/>
    <g transform="translate(470,80)">
      <circle cx="0" cy="0" r="22" fill="none" stroke="#d08f2e" stroke-width="6"/>
      <g stroke="#d08f2e" stroke-width="6" stroke-linecap="round">
        <line x1="0" y1="-36" x2="0" y2="-26"/>
        <line x1="0" y1="26" x2="0" y2="36"/>
        <line x1="-36" y1="0" x2="-26" y2="0"/>
        <line x1="26" y1="0" x2="36" y2="0"/>
        <line x1="-25" y1="-25" x2="-18" y2="-18"/>
        <line x1="25" y1="25" x2="18" y2="18"/>
        <line x1="25" y1="-25" x2="18" y2="-18"/>
        <line x1="-25" y1="25" x2="-18" y2="18"/>
      </g>
    </g>
    <text x="0" y="200" fill="#eaeaea" font-family="system-ui, -apple-system, Segoe UI, Roboto, Ubuntu, Arial, sans-serif" font-size="44" font-weight="600">happyk<tspan fill="#d08f2e">.au</tspan></text>
  </g>
</svg>
